<svg width="27" height="27" viewBox="0 0 27 27" fill="none" xmlns="http://www.w3.org/2000/svg">
<path d="M25.1596 25.4483L19.5187 19.8075M19.5187 19.8075C20.4836 18.8426 21.249 17.6971 21.7712 16.4364C22.2934 15.1757 22.5622 13.8245 22.5622 12.46C22.5622 11.0954 22.2934 9.7442 21.7712 8.48351C21.249 7.22282 20.4836 6.07733 19.5187 5.11244C18.5538 4.14755 17.4084 3.38216 16.1477 2.85996C14.887 2.33777 13.5358 2.069 12.1712 2.069C10.8067 2.069 9.45547 2.33777 8.19478 2.85996C6.93409 3.38216 5.7886 4.14755 4.82371 5.11244C2.87503 7.06112 1.78027 9.7041 1.78027 12.46C1.78027 15.2158 2.87503 17.8588 4.82371 19.8075C6.77239 21.7561 9.41537 22.8509 12.1712 22.8509C14.9271 22.8509 17.5701 21.7561 19.5187 19.8075Z" stroke="#939393" stroke-width="2.33793" stroke-linecap="round" stroke-linejoin="round"/>
</svg>
