<svg width="20" height="21" viewBox="0 0 20 21" fill="none" xmlns="http://www.w3.org/2000/svg">
<path d="M17.0854 3.22266C16.164 2.29193 15.0665 1.55398 13.8569 1.05185C12.6473 0.549726 11.3499 0.293471 10.0402 0.298034C4.55278 0.298034 0.0804174 4.77039 0.0804174 10.2578C0.0804174 12.0166 0.542729 13.7252 1.40705 15.2327L1.52588e-05 20.3985L5.2764 19.0116C6.73368 19.8056 8.37187 20.2277 10.0402 20.2277C15.5277 20.2277 20 15.7553 20 10.2679C20 7.60457 18.9648 5.10205 17.0854 3.22266ZM10.0402 18.5392C8.55278 18.5392 7.09549 18.1372 5.81911 17.3835L5.5176 17.2026L2.38192 18.0267L3.2161 14.9714L3.01509 14.6598C2.1887 13.3402 1.7499 11.8149 1.74876 10.2578C1.74876 5.69502 5.46735 1.97643 10.0302 1.97643C12.2412 1.97643 14.3216 2.84075 15.8794 4.40859C16.6507 5.17639 17.262 6.08965 17.6778 7.09544C18.0936 8.10124 18.3056 9.17955 18.3015 10.2679C18.3216 14.8307 14.603 18.5392 10.0402 18.5392ZM14.5829 12.3483C14.3317 12.2277 13.1055 11.6247 12.8844 11.5342C12.6533 11.4538 12.4925 11.4136 12.3216 11.6548C12.1508 11.9061 11.6784 12.4689 11.5377 12.6297C11.397 12.8005 11.2462 12.8206 10.995 12.69C10.7437 12.5694 9.93971 12.298 8.99499 11.4538C8.25127 10.7905 7.75881 9.97642 7.60805 9.72517C7.46735 9.47391 7.58795 9.34326 7.71861 9.2126C7.82916 9.10205 7.96986 8.92115 8.09047 8.78044C8.21107 8.63974 8.26132 8.52919 8.34172 8.36838C8.42212 8.19753 8.38192 8.05683 8.32162 7.93622C8.26132 7.81562 7.75881 6.58949 7.5578 6.08698C7.3568 5.60457 7.14574 5.66487 6.99499 5.65482H6.51258C6.34172 5.65482 6.08042 5.71512 5.84926 5.96637C5.62816 6.21763 4.98494 6.82065 4.98494 8.04678C4.98494 9.27291 5.87941 10.4588 6.00001 10.6196C6.12062 10.7905 7.75881 13.3031 10.2513 14.3784C10.8442 14.6397 11.3065 14.7905 11.6684 14.901C12.2613 15.092 12.804 15.0618 13.2362 15.0015C13.7186 14.9312 14.7136 14.3985 14.9146 13.8156C15.1256 13.2327 15.1256 12.7402 15.0553 12.6297C14.9849 12.5191 14.8342 12.4689 14.5829 12.3483Z" fill="#7A5CF0"/>
</svg>
